<?xml version="1.0" encoding="utf-8"?>
<!-- Generator: Adobe Illustrator 16.0.0, SVG Export Plug-In . SVG Version: 6.00 Build 0)  -->
<!DOCTYPE svg PUBLIC "-//W3C//DTD SVG 1.1//EN" "http://www.w3.org/Graphics/SVG/1.1/DTD/svg11.dtd">
<svg version="1.1"
	 id="svg10716" xmlns:inkscape="http://www.inkscape.org/namespaces/inkscape" xmlns:rdf="http://www.w3.org/1999/02/22-rdf-syntax-ns#" xmlns:sodipodi="http://sodipodi.sourceforge.net/DTD/sodipodi-0.dtd" xmlns:cc="http://creativecommons.org/ns#" xmlns:dc="http://purl.org/dc/elements/1.1/" xmlns:svg="http://www.w3.org/2000/svg" xmlns:ns1="http://sozi.baierouge.fr" inkscape:version="0.46" inkscape:output_extension="org.inkscape.output.svg.inkscape" sodipodi:version="0.32" sodipodi:docname="afaulconbridge_Lightbulb_On.svg"
	 xmlns="http://www.w3.org/2000/svg" xmlns:xlink="http://www.w3.org/1999/xlink" x="0px" y="0px" width="309.218px"
	 height="500.078px" viewBox="95.429 -0.078 309.218 500.078" enable-background="new 95.429 -0.078 309.218 500.078"
	 xml:space="preserve">
<sodipodi:namedview  showgrid="false" inkscape:cy="131.37862" inkscape:cx="175.0264" borderopacity="1.0" objecttolerance="10.0" inkscape:zoom="1.5654781" gridtolerance="10.0" pagecolor="#ffffff" guidetolerance="10.0" bordercolor="#666666" id="base" inkscape:window-width="640" inkscape:pageopacity="0.0" inkscape:window-height="667" inkscape:pageshadow="2" inkscape:window-y="22" inkscape:window-x="0" inkscape:current-layer="svg10716">
	</sodipodi:namedview>
<g id="g10519" transform="translate(-1283 -176.85)">
	<rect id="rect10292" x="1513.653" y="176.85" fill="#6E6E6E" width="36.226" height="12.075"/>
	
		<radialGradient id="rect10300_1_" cx="1390.1484" cy="331.9877" r="11.4402" gradientTransform="matrix(-1.9029 0 0 1.9029 4177.1504 -441.6116)" gradientUnits="userSpaceOnUse">
		<stop  offset="0" style="stop-color:#CFCFCF"/>
		<stop  offset="1" style="stop-color:#A8A8A8"/>
	</radialGradient>
	<rect id="rect10300" x="1501.681" y="184.08" fill="url(#rect10300_1_)" width="60.376" height="12.076"/>
	<path id="path10308" fill="#FFDD55" d="M1378.43,540.596c0,75.24,69.265,136.246,154.704,136.246
		c85.25,0,154.513-61.006,154.513-136.246c0-29.723-11.036-57.162-29.304-79.559c-2.094-3.045-63.367-89.55-68.504-126.028
		c-5.328-37.163-5.328-47.077-5.328-47.077l-29.115-0.971l0.191-1.503l-22.455,0.761l-22.454-0.761v1.503l-29.114,0.971
		c0,0,0,9.914-5.328,47.077c-5.137,36.497-66.41,122.983-68.503,126.028C1389.466,483.434,1378.429,510.873,1378.43,540.596
		L1378.43,540.596z"/>
	<g id="g10310" transform="translate(1283 176.85)" opacity="0.39">
		<line id="line10312" fill="none" stroke="#6D6868" stroke-width="0.75" x1="252.495" y1="321.208" x2="262.156" y2="103.852"/>
		<line id="line10314" fill="none" stroke="#6D6868" stroke-width="0.75" x1="245.249" y1="321.208" x2="240.419" y2="103.852"/>
	</g>
	<path id="path10326" opacity="0.26" fill="#FFEEAA" enable-background="new    " d="M1533.134,676.842l0.761-6.241l-3.997-30.047
		c1.332-0.266,2.664-0.57,3.997-0.837c-180.393-35.108-80.493-170.65-80.493-170.65l57.277-183.608l-29.114,2.493
		c13.7,41.045-57.276,154.552-57.276,154.552C1286.711,650.203,1533.134,676.842,1533.134,676.842L1533.134,676.842z"/>
	<path id="path10328" opacity="0.26" fill="#FFEEAA" enable-background="new    " d="M1533.896,670.601l0.761,6.241
		c0,0,246.423-26.641,108.654-234.34c0,0-70.787-113.506-57.086-154.57l-29.115-2.474l57.277,183.608
		c0,0,99.711,135.542-80.491,170.65c1.331,0.267,2.664,0.571,3.995,0.837L1533.896,670.601L1533.896,670.601z"/>
	<path id="path10330" opacity="0.26" fill="#FFEEAA" enable-background="new    " d="M1533.896,670.601l3.996-30.047
		c-1.332-0.266-2.664-0.57-3.996-0.837c-1.333,0.267-2.665,0.571-3.997,0.837L1533.896,670.601z"/>
	<path id="path10332" opacity="0.26" fill="#F4EED7" enable-background="new    " d="M1533.896,670.601l3.996-30.047
		c-1.332-0.266-2.664-0.57-3.996-0.837c-1.333,0.267-2.665,0.571-3.997,0.837L1533.896,670.601z"/>
	<g id="g10334" transform="translate(1283 176.85)" opacity="0.54">
		<path id="path10336" fill="#FFF6D5" d="M319.591,475.736c0,0,109.121-82.566,62.161-165.647
			C343.283,233.38,419.207,384.025,319.591,475.736z"/>
	</g>
	<g id="g10338" transform="translate(1283 176.85)">
		<g id="g10340">
			
				<radialGradient id="path10348_1_" cx="106.5098" cy="200.5654" r="20.8965" gradientTransform="matrix(-1.9029 0 0 1.9029 452.7591 -281.9378)" gradientUnits="userSpaceOnUse">
				<stop  offset="0" style="stop-color:#FFFFFF"/>
				<stop  offset="1" style="stop-color:#818181"/>
			</radialGradient>
			<path id="path10348" fill="url(#path10348_1_)" d="M195.75,99.703c0-7.992,6.489-14.48,14.481-14.48h79.7
				c8.003,0,14.49,6.488,14.49,14.48c0,8.011-6.487,14.5-14.49,14.5h-79.7C202.239,114.203,195.75,107.714,195.75,99.703z"/>
			<line id="line10350" fill="none" stroke="#6D6868" stroke-width="0.75" x1="195.75" y1="111.786" x2="304.421" y2="111.786"/>
		</g>
		<g id="g10352">
			<g id="g10354">
				<g id="g10356">
					
						<radialGradient id="rect10364_1_" cx="105.8779" cy="191.3574" r="21.2093" gradientTransform="matrix(-1.9029 0 0 1.9029 452.7591 -281.9378)" gradientUnits="userSpaceOnUse">
						<stop  offset="0.3315" style="stop-color:#FFFFFF"/>
						<stop  offset="1" style="stop-color:#A1A1A1"/>
					</radialGradient>
					<rect id="rect10364" x="194.532" y="76.153" fill="url(#rect10364_1_)" width="113.51" height="12.075"/>
					<line id="line10366" fill="none" stroke="#AFAFAF" stroke-width="0.75" x1="300.798" y1="72.53" x2="199.365" y2="72.53"/>
				</g>
				<g id="g10368">
					
						<radialGradient id="rect10376_1_" cx="105.8779" cy="182.4775" r="21.2093" gradientTransform="matrix(-1.9029 0 0 1.9029 452.7591 -281.9378)" gradientUnits="userSpaceOnUse">
						<stop  offset="0.3315" style="stop-color:#FFFFFF"/>
						<stop  offset="1" style="stop-color:#A1A1A1"/>
					</radialGradient>
					<rect id="rect10376" x="194.532" y="59.256" fill="url(#rect10376_1_)" width="113.51" height="12.075"/>
					<line id="line10378" fill="none" stroke="#AFAFAF" stroke-width="0.75" x1="300.798" y1="55.632" x2="199.365" y2="55.632"/>
				</g>
			</g>
			<g id="g10380">
				<g id="g10382">
					
						<radialGradient id="rect10390_1_" cx="105.8779" cy="173.5869" r="21.2093" gradientTransform="matrix(-1.9029 0 0 1.9029 452.7591 -281.9378)" gradientUnits="userSpaceOnUse">
						<stop  offset="0.3315" style="stop-color:#FFFFFF"/>
						<stop  offset="1" style="stop-color:#A1A1A1"/>
					</radialGradient>
					<rect id="rect10390" x="194.532" y="42.339" fill="url(#rect10390_1_)" width="113.51" height="12.075"/>
					<line id="line10392" fill="none" stroke="#AFAFAF" stroke-width="0.75" x1="300.798" y1="38.734" x2="199.365" y2="38.734"/>
				</g>
				<g id="g10394">
					
						<radialGradient id="rect10402_1_" cx="105.8779" cy="164.707" r="21.2093" gradientTransform="matrix(-1.9029 0 0 1.9029 452.7591 -281.9378)" gradientUnits="userSpaceOnUse">
						<stop  offset="0.3315" style="stop-color:#FFFFFF"/>
						<stop  offset="1" style="stop-color:#A1A1A1"/>
					</radialGradient>
					<rect id="rect10402" x="194.532" y="25.441" fill="url(#rect10402_1_)" width="113.51" height="12.075"/>
					<line id="line10404" fill="none" stroke="#AFAFAF" stroke-width="0.75" x1="300.798" y1="21.818" x2="199.365" y2="21.818"/>
				</g>
			</g>
		</g>
	</g>
	<path id="path10406" fill="none" stroke="#FFFFFF" stroke-width="0.5" d="M1552.544,484.08c-8.754-13.415-22.835-13.415-31.588,0
		c-7.041,10.714-7.041,28.106,0,38.838c5.519,8.563,14.653,8.563,20.17,0c4.567-6.869,4.567-18.001,0-24.852
		c-3.615-5.499-9.325-5.499-12.94-0.019"/>
	<path id="path10414" opacity="0.54" fill="#FFF6D5" enable-background="new    " d="M1396.507,572.242
		c0,0-19.6-80.949,33.871-128.711C1430.378,443.531,1394.795,560.043,1396.507,572.242z"/>
</g>
</svg>
