<?xml version="1.0" encoding="utf-8"?>
<!-- Generator: Adobe Illustrator 16.0.0, SVG Export Plug-In . SVG Version: 6.00 Build 0)  -->
<!DOCTYPE svg PUBLIC "-//W3C//DTD SVG 1.1//EN" "http://www.w3.org/Graphics/SVG/1.1/DTD/svg11.dtd">
<svg version="1.1" id="Layer_1" xmlns="http://www.w3.org/2000/svg" xmlns:xlink="http://www.w3.org/1999/xlink" x="0px" y="0px"
	 width="283px" height="500px" viewBox="108.5 0 283 500" enable-background="new 108.5 0 283 500" xml:space="preserve">
<g>
	<path fill="none" stroke="#000000" stroke-miterlimit="10" d="M364.077,178.029"/>
	<polygon fill="none" stroke="#000000" stroke-miterlimit="10" points="163.5,280.557 163.5,441.87 140.532,465.189 117.5,442.08 
		117.5,280.557 140.5,257.656 	"/>
	<polygon fill="none" stroke="#000000" stroke-miterlimit="10" points="163.5,59.557 163.5,220.87 140.532,244.189 117.5,221.08 
		117.5,59.557 140.5,36.656 	"/>
	<polygon fill="none" stroke="#000000" stroke-miterlimit="10" points="383.5,280.557 383.5,441.87 360.532,465.189 337.5,442.08 
		337.5,280.557 360.5,257.656 	"/>
	<polygon fill="none" stroke="#000000" stroke-miterlimit="10" points="383.5,59.557 383.5,220.87 360.532,244.189 337.5,221.08 
		337.5,59.557 360.5,36.656 	"/>
	<polygon fill="none" stroke="#000000" stroke-miterlimit="10" points="331.365,493.5 170.052,493.5 146.732,470.532 169.842,447.5 
		331.365,447.5 354.266,470.5 	"/>
	<polygon fill="none" stroke="#000000" stroke-miterlimit="10" points="331.365,274.5 170.052,274.5 146.732,251.532 169.842,228.5 
		331.365,228.5 354.266,251.5 	"/>
	<polygon fill="none" stroke="#000000" stroke-miterlimit="10" points="331.365,52.5 170.052,52.5 146.732,29.532 169.842,6.5 
		331.365,6.5 354.266,29.5 	"/>
</g>
</svg>
